<svg xmlns="http://www.w3.org/2000/svg" xmlns:xlink="http://www.w3.org/1999/xlink" width="800" zoomAndPan="magnify" viewBox="0 0 600 599.999999" height="800" preserveAspectRatio="xMidYMid meet" version="1.0"><defs><clipPath id="f3c60b0416"><path d="M 66.289062 170 L 325 170 L 325 594 L 66.289062 594 Z M 66.289062 170 " clip-rule="nonzero"/></clipPath><clipPath id="b37bd0cca3"><path d="M 247 5.5625 L 318 5.5625 L 318 155 L 247 155 Z M 247 5.5625 " clip-rule="nonzero"/></clipPath></defs><rect x="-60" width="720" fill="#ffffff" y="-60" height="719.999999" fill-opacity="1"/><rect x="-60" width="720" fill="#ffffff" y="-60" height="719.999999" fill-opacity="1"/><g clip-path="url(#f3c60b0416)"><path fill="#acacac" d="M 262.539062 593.179688 C 262.289062 592.9375 261.988281 594.058594 261.738281 593.816406 C 261.523438 593.628906 293.171875 554.308594 297.96875 521.628906 C 300.628906 503.511719 297.179688 489.679688 277.863281 474.789062 C 276.671875 473.875 272.125 470.367188 262.140625 464.53125 C 255.019531 460.367188 254.84375 460.695312 247.660156 456.628906 C 246.699219 456.089844 246.664062 456.167969 235.605469 449.9375 C 235.492188 449.871094 219.15625 440.824219 209.429688 435.59375 C 193.339844 426.9375 161.058594 410.296875 136.683594 393.3125 C 135.507812 392.492188 130.746094 389.394531 124.691406 384.761719 C 123.570312 383.90625 119.332031 381.09375 113.679688 376.46875 C 107.503906 371.414062 70.515625 344.773438 67.199219 289.574219 C 66.972656 285.761719 66.332031 276.152344 69.175781 260.878906 C 70.484375 253.867188 73.128906 246.730469 73.570312 245.53125 C 74.386719 243.332031 80.328125 229 90.320312 216.140625 C 105.261719 196.910156 119.949219 188.011719 125.535156 184.730469 C 158.597656 165.324219 201.273438 162.328125 234.070312 198.289062 C 243.917969 209.089844 250.296875 221.425781 250.785156 222.332031 C 240.585938 212.015625 216.074219 188.757812 183.757812 193.449219 C 175.085938 194.707031 153.878906 199.175781 134.664062 227.277344 C 134.214844 227.933594 129.679688 234.125 124.285156 246.726562 C 121.519531 253.179688 120.714844 256.664062 119.011719 262.316406 C 118.652344 263.519531 116.382812 271.347656 115.457031 275.367188 C 114.527344 279.394531 113.152344 287.554688 112.902344 293.652344 C 112.835938 295.203125 111.445312 314.367188 122.179688 334.371094 C 128.710938 346.542969 138.3125 354.613281 140.828125 356.777344 C 140.828125 356.777344 143.296875 359.289062 153.074219 365.523438 C 154.371094 366.351562 162.324219 371.113281 171.664062 375.667969 C 196.988281 388.007812 229.351562 400.085938 249.679688 409.878906 C 257.917969 413.84375 261.828125 415.796875 271.507812 421.664062 C 271.90625 421.90625 283.914062 429.9375 292.40625 437.6875 C 303.4375 447.746094 316.242188 461.839844 321.75 481.070312 C 329.074219 506.652344 318.949219 527.292969 314.78125 535.117188 C 301.945312 559.207031 278.601562 580.011719 262.539062 593.179688 Z M 262.539062 593.179688 " fill-opacity="1" fill-rule="evenodd"/></g><path fill="#acacac" d="M 341.808594 20.917969 C 354.21875 22.714844 406.667969 31.660156 423.289062 72.589844 C 426.050781 79.390625 434.242188 101.441406 421.050781 136.558594 C 419.707031 140.125 413.332031 155.484375 401.886719 171.035156 C 396.289062 178.636719 390.847656 185.046875 389.484375 186.667969 C 389.265625 186.929688 385.226562 191.195312 384.78125 191.644531 C 379.4375 197.03125 371.253906 203.9375 368.632812 206.179688 C 357.644531 215.574219 331.117188 234.675781 318.027344 250.164062 C 317.152344 251.199219 311.25 258.1875 309.152344 264.632812 C 307.148438 270.78125 308.074219 277.023438 308.414062 279.480469 C 312.1875 306.769531 340.96875 324.992188 369.027344 344.039062 C 371.113281 345.453125 381.890625 353.167969 384.96875 355.6875 C 394.511719 363.496094 396.460938 365.738281 399.101562 368.53125 C 406.441406 376.292969 417.03125 388.394531 424.113281 406.382812 C 429.746094 420.691406 429.683594 434.738281 429.675781 437.246094 C 429.5625 462.183594 418.976562 482.597656 412.519531 493.761719 C 412.503906 493.785156 400.226562 516.589844 371.558594 546.691406 C 382.886719 525.894531 401.226562 490.160156 402.101562 456.695312 C 402.578125 438.507812 396.613281 426.339844 389.375 416.9375 C 381.613281 406.855469 368.734375 397.097656 366.75 395.59375 C 366.496094 395.402344 363.714844 392.9375 358.429688 388.800781 C 355.996094 386.898438 355.59375 386.339844 346.011719 378.730469 C 345.59375 378.398438 332.425781 367.710938 324.515625 360.855469 C 306.929688 345.617188 283.488281 322.992188 277.664062 290.511719 C 276.984375 286.71875 276.0625 282.765625 275.902344 270.203125 C 275.445312 234.453125 306.445312 203.382812 332.011719 176.023438 C 334.445312 173.425781 347.8125 159.671875 351.617188 156.0625 C 354.328125 153.492188 354.300781 153.46875 357.097656 150.984375 C 358.457031 149.773438 364.582031 144.324219 373.445312 135.195312 C 379.117188 129.355469 393.210938 113.667969 397.796875 96.328125 C 400.15625 87.402344 400.761719 75.738281 392.785156 61.753906 C 385.652344 49.257812 373.308594 39.890625 371.304688 38.335938 C 357.867188 27.945312 344.273438 22.039062 341.808594 20.917969 Z M 341.808594 20.917969 " fill-opacity="1" fill-rule="evenodd"/><path fill="#acacac" d="M 466.25 258.535156 C 462.230469 273.277344 456.066406 298.65625 463.5625 315.671875 C 467.890625 325.492188 476.046875 331.855469 482.546875 337.894531 C 483.457031 338.742188 488.945312 344.222656 491.5 347.023438 C 499.878906 356.210938 509.472656 367.085938 519.222656 387.773438 C 522.304688 394.3125 533.671875 412.765625 525.6875 443.902344 C 524.042969 450.304688 521.632812 455.6875 521.1875 456.675781 C 515.695312 468.917969 504.730469 481.449219 503.027344 483.394531 C 485.207031 503.761719 467.089844 516.0625 457.445312 523.300781 C 461.296875 518.640625 485.835938 491.644531 499.996094 460.207031 C 501.953125 455.859375 501.917969 455.847656 503.746094 451.445312 C 508.011719 441.144531 521.53125 414.359375 503.867188 388.648438 C 491.554688 370.722656 477.15625 362.214844 466.558594 351.265625 C 465.730469 350.410156 460.804688 344.863281 457.808594 340.320312 C 452.453125 332.195312 446.8125 320.824219 448.699219 303.820312 C 450.257812 289.796875 456.640625 275.171875 466.25 258.535156 Z M 466.25 258.535156 " fill-opacity="1" fill-rule="evenodd"/><g clip-path="url(#b37bd0cca3)"><path fill="#acacac" d="M 247.695312 5.972656 C 259.851562 10.375 271.34375 14.597656 285.808594 22.546875 C 286.804688 23.09375 295.085938 27.960938 299.425781 32.105469 C 303.839844 36.3125 311.199219 46.949219 314.257812 58.949219 C 315.46875 63.699219 315.414062 64.210938 316.449219 70.136719 C 318.382812 81.238281 318.089844 93.492188 313.289062 108.011719 C 312.425781 110.628906 311.160156 112.957031 310.9375 113.367188 C 308.175781 118.449219 305.710938 122.316406 299.835938 129.957031 C 298.234375 132.042969 294.214844 137.570312 278.945312 154.191406 C 279.765625 151.941406 283.765625 140.957031 288.707031 125.914062 C 291.460938 117.519531 294.398438 106.769531 295.4375 104.027344 C 298.59375 95.703125 302.027344 88.929688 303.050781 78.945312 C 303.207031 77.46875 303.367188 73.230469 302.601562 70.519531 C 299.355469 59 287.894531 50.613281 283.917969 45.851562 C 283.625 45.496094 283.628906 45.492188 280.273438 41.34375 C 271.605469 30.632812 271.546875 30.683594 262.136719 20.609375 C 255.5625 13.574219 249.074219 7.320312 247.695312 5.972656 Z M 247.695312 5.972656 " fill-opacity="1" fill-rule="evenodd"/></g></svg>