<svg xmlns="http://www.w3.org/2000/svg" xmlns:xlink="http://www.w3.org/1999/xlink" width="800" zoomAndPan="magnify" viewBox="0 0 600 599.999999" height="800" preserveAspectRatio="xMidYMid meet" version="1.0"><defs><clipPath id="c4d50201c1"><path d="M 91 139 L 509 139 L 509 599.609375 L 91 599.609375 Z M 91 139 " clip-rule="nonzero"/></clipPath><clipPath id="4d67760005"><path d="M 2.953125 37.097656 L 596.953125 37.097656 L 596.953125 335 L 2.953125 335 Z M 2.953125 37.097656 " clip-rule="nonzero"/></clipPath></defs><rect x="-60" width="720" fill="#ffffff" y="-60" height="719.999999" fill-opacity="1"/><rect x="-60" width="720" fill="#ffffff" y="-60" height="719.999999" fill-opacity="1"/><g clip-path="url(#c4d50201c1)"><path fill="#8f8f8f" d="M 91.53125 599.429688 C 91.078125 517.632812 91.46875 415.34375 91.832031 333.550781 C 91.863281 328.277344 94.0625 321.34375 97.796875 318.027344 C 163.621094 259.320312 229.832031 201.03125 295.957031 142.6875 C 297.222656 141.570312 298.667969 140.636719 300.539062 139.28125 C 338.148438 172.460938 471.902344 290.03125 500.625 316.339844 C 504.964844 320.289062 508.339844 327.734375 508.398438 333.582031 C 508.882812 415.375 509.183594 516.941406 508.761719 598.734375 C 502.855469 600.605469 365.726562 598.734375 365.726562 598.734375 C 365.785156 561.453125 365.757812 524.171875 366.027344 486.894531 C 366.117188 475.46875 360.785156 470.527344 349.632812 470.558594 C 316.632812 470.679688 283.628906 470.679688 250.597656 470.558594 C 239.449219 470.496094 234.113281 475.46875 234.203125 486.894531 C 234.445312 524.171875 234.414062 561.453125 234.503906 598.734375 C 234.503906 598.734375 82.851562 600.121094 91.53125 599.429688 " fill-opacity="1" fill-rule="nonzero"/></g><g clip-path="url(#4d67760005)"><path fill="#8f8f8f" d="M 2.953125 297.714844 C 28.84375 275.445312 219.34375 108.386719 288.722656 47.117188 C 292.21875 44.042969 295.894531 41.152344 300.476562 37.351562 C 399.421875 124.753906 497.910156 211.730469 597.035156 299.28125 C 586.636719 311.007812 576.753906 322.128906 566.085938 334.152344 C 477.296875 255.734375 389.113281 177.855469 300.175781 99.285156 C 211.628906 177.464844 123.417969 255.371094 34.539062 333.851562 C 23.871094 322.550781 13.414062 311.429688 2.953125 300.308594 C 2.953125 299.433594 2.953125 298.589844 2.953125 297.714844 " fill-opacity="1" fill-rule="nonzero"/></g><path fill="#8f8f8f" d="M 92.34375 185.933594 C 92.34375 147.6875 92.34375 112.367188 92.34375 76.503906 C 116.964844 76.503906 140.804688 76.503906 165.429688 76.503906 C 165.429688 90.183594 165.640625 103.324219 165.21875 116.433594 C 165.128906 118.96875 162.988281 121.949219 160.9375 123.789062 C 138.878906 144.011719 116.605469 164.023438 92.34375 185.933594 " fill-opacity="1" fill-rule="nonzero"/></svg>