<svg xmlns="http://www.w3.org/2000/svg" xmlns:xlink="http://www.w3.org/1999/xlink" width="800" zoomAndPan="magnify" viewBox="0 0 600 599.999999" height="800" preserveAspectRatio="xMidYMid meet" version="1.0"><defs><g/></defs><rect x="-60" width="720" fill="#ffffff" y="-60" height="719.999999" fill-opacity="1"/><rect x="-60" width="720" fill="#ffffff" y="-60" height="719.999999" fill-opacity="1"/><path fill="#8f8f8f" d="M 223.746094 470.078125 C 223.746094 470.078125 179.617188 479.683594 152.171875 492.355469 C 124.726562 505.023438 59.550781 507.125 43.578125 524.019531 C 27.605469 540.910156 0 599.273438 0 599.273438 L 600.148438 599.273438 C 600.148438 599.273438 572.550781 540.910156 556.582031 524.019531 C 540.609375 507.125 475.421875 505.023438 447.976562 492.355469 C 420.53125 479.683594 376.410156 470.078125 376.410156 470.078125 C 376.410156 470.078125 347.523438 503.765625 300.074219 503.765625 C 252.625 503.765625 223.746094 470.078125 223.746094 470.078125 Z M 223.746094 470.078125 " fill-opacity="1" fill-rule="nonzero"/><path fill="#f0f0f0" d="M 232.976562 400.5 C 229.625 430.039062 225.925781 461.09375 221.960938 476.5625 C 221.960938 476.5625 234.078125 506.835938 300.074219 506.835938 C 366.070312 506.835938 378.195312 476.5625 378.195312 476.5625 C 374.234375 461.09375 370.53125 430.039062 367.183594 400.5 L 300.074219 419.511719 Z M 232.976562 400.5 " fill-opacity="1" fill-rule="nonzero"/><path fill="#d6d6d6" d="M 231.601562 412.511719 L 229.734375 428.09375 C 229.734375 428.09375 268.023438 468.101562 300.078125 468.101562 C 332.132812 468.101562 370.433594 428.09375 370.433594 428.09375 L 368.5625 412.511719 L 300.082031 434.332031 L 231.605469 412.511719 Z M 231.601562 412.511719 " fill-opacity="1" fill-rule="nonzero"/><path fill="#f0f0f0" d="M 300.074219 95.953125 C 249.507812 95.953125 207.074219 117.589844 192.824219 137.644531 C 178.570312 157.703125 175.40625 208.898438 182.792969 261.152344 C 177.515625 246.902344 156.929688 246.90625 153.238281 256.40625 C 149.542969 265.90625 160.097656 315.523438 168.542969 321.859375 C 176.988281 328.191406 188.597656 325.550781 188.597656 325.550781 C 188.597656 325.550781 196.511719 376.222656 202.316406 388.363281 C 208.125 400.5 235.578125 414.753906 255.636719 426.363281 C 271.984375 435.828125 291.203125 441.085938 297.753906 442.707031 C 299.292969 443.089844 300.855469 443.089844 302.394531 442.707031 C 308.949219 441.085938 328.171875 435.828125 344.523438 426.363281 C 364.582031 414.753906 392.023438 400.5 397.832031 388.363281 C 403.636719 376.222656 411.558594 325.550781 411.558594 325.550781 C 411.558594 325.550781 423.171875 328.191406 431.613281 321.859375 C 440.058594 315.523438 450.617188 265.90625 446.921875 256.40625 C 443.226562 246.90625 422.640625 246.902344 417.363281 261.152344 C 424.75 208.894531 421.585938 157.703125 407.335938 137.644531 C 393.082031 117.585938 350.640625 95.953125 300.074219 95.953125 Z M 300.074219 95.953125 " fill-opacity="1" fill-rule="nonzero"/><path fill="#8f8f8f" d="M 161.757812 191.078125 C 161.757812 191.078125 165.492188 238.851562 166.984375 244.082031 C 168.476562 249.304688 187.140625 273.941406 187.140625 273.941406 C 187.140625 273.941406 184.152344 223.925781 187.140625 217.957031 C 190.125 211.984375 202.8125 199.296875 202.8125 199.296875 L 195.351562 220.195312 C 195.351562 220.195312 223.71875 208.996094 246.859375 206.757812 C 270 204.519531 292.394531 210.488281 325.984375 206.015625 C 359.574219 201.535156 384.210938 186.605469 384.210938 186.605469 L 367.785156 205.265625 C 367.785156 205.265625 387.941406 203.027344 396.152344 191.828125 C 390.929688 226.164062 409.589844 260.503906 407.351562 279.910156 C 414.816406 264.980469 426.011719 253.039062 430.492188 247.0625 C 434.972656 241.089844 437.210938 150.769531 434.226562 142.558594 C 431.238281 134.347656 425.269531 126.882812 425.269531 126.882812 L 437.210938 123.898438 L 417.800781 118.671875 L 417.058594 92.542969 L 403.621094 111.953125 C 403.621094 111.953125 384.960938 91.800781 355.097656 83.585938 C 325.238281 75.375 256.558594 74.628906 239.390625 79.855469 C 222.222656 85.082031 200.574219 98.519531 200.574219 98.519531 C 200.574219 98.519531 233.421875 94.039062 230.433594 94.039062 C 227.449219 94.039062 155.789062 112.699219 161.757812 191.078125 Z M 161.757812 191.078125 " fill-opacity="1" fill-rule="nonzero"/><g fill="#8f8f8f" fill-opacity="1"><g transform="translate(175.130851, 577.303003)"><g><path d="M 13.015625 0.640625 C 10.878906 0.640625 9.023438 0.25 7.453125 -0.53125 C 5.878906 -1.320312 4.664062 -2.476562 3.8125 -4 C 2.96875 -5.53125 2.546875 -7.363281 2.546875 -9.5 C 2.546875 -11.476562 2.96875 -13.140625 3.8125 -14.484375 C 4.664062 -15.828125 5.976562 -16.925781 7.75 -17.78125 C 9.53125 -18.644531 11.851562 -19.304688 14.71875 -19.765625 C 16.707031 -20.085938 18.222656 -20.441406 19.265625 -20.828125 C 20.304688 -21.210938 21.007812 -21.644531 21.375 -22.125 C 21.738281 -22.613281 21.921875 -23.234375 21.921875 -23.984375 C 21.921875 -25.046875 21.546875 -25.859375 20.796875 -26.421875 C 20.046875 -26.992188 18.804688 -27.28125 17.078125 -27.28125 C 15.222656 -27.28125 13.457031 -26.863281 11.78125 -26.03125 C 10.101562 -25.207031 8.648438 -24.117188 7.421875 -22.765625 L 6.8125 -22.765625 L 3.296875 -28.0625 C 4.992188 -29.9375 7.0625 -31.398438 9.5 -32.453125 C 11.945312 -33.503906 14.613281 -34.03125 17.5 -34.03125 C 21.914062 -34.03125 25.113281 -33.085938 27.09375 -31.203125 C 29.070312 -29.328125 30.0625 -26.664062 30.0625 -23.21875 L 30.0625 -8.71875 C 30.0625 -7.226562 30.71875 -6.484375 32.03125 -6.484375 C 32.53125 -6.484375 33.023438 -6.570312 33.515625 -6.75 L 33.9375 -6.625 L 34.546875 -0.78125 C 34.078125 -0.476562 33.425781 -0.226562 32.59375 -0.03125 C 31.769531 0.15625 30.863281 0.25 29.875 0.25 C 27.882812 0.25 26.328125 -0.132812 25.203125 -0.90625 C 24.078125 -1.675781 23.273438 -2.878906 22.796875 -4.515625 L 22.15625 -4.578125 C 20.519531 -1.097656 17.472656 0.640625 13.015625 0.640625 Z M 15.6875 -5.625 C 17.625 -5.625 19.171875 -6.273438 20.328125 -7.578125 C 21.484375 -8.878906 22.0625 -10.691406 22.0625 -13.015625 L 22.0625 -16.40625 L 21.5 -16.53125 C 20.988281 -16.125 20.320312 -15.785156 19.5 -15.515625 C 18.6875 -15.242188 17.515625 -14.976562 15.984375 -14.71875 C 14.171875 -14.414062 12.863281 -13.894531 12.0625 -13.15625 C 11.269531 -12.414062 10.875 -11.367188 10.875 -10.015625 C 10.875 -8.585938 11.296875 -7.5 12.140625 -6.75 C 12.984375 -6 14.164062 -5.625 15.6875 -5.625 Z M 15.6875 -5.625 "/></g></g></g><g fill="#8f8f8f" fill-opacity="1"><g transform="translate(209.940893, 577.303003)"><g><path d="M 5.84375 0 L 5.84375 -26.765625 L 1.125 -26.765625 L 1.125 -33.421875 L 5.84375 -33.421875 C 5.5 -34.835938 5.328125 -36.160156 5.328125 -37.390625 C 5.328125 -39.503906 5.8125 -41.3125 6.78125 -42.8125 C 7.75 -44.320312 9.140625 -45.46875 10.953125 -46.25 C 12.773438 -47.039062 14.9375 -47.4375 17.4375 -47.4375 C 21.132812 -47.4375 23.890625 -46.800781 25.703125 -45.53125 L 23.734375 -39.359375 L 23.09375 -39.234375 C 21.84375 -40.117188 20.238281 -40.5625 18.28125 -40.5625 C 16.769531 -40.5625 15.632812 -40.191406 14.875 -39.453125 C 14.125 -38.722656 13.75 -37.722656 13.75 -36.453125 C 13.75 -35.898438 13.78125 -35.394531 13.84375 -34.9375 C 13.914062 -34.488281 14.046875 -33.984375 14.234375 -33.421875 L 23.765625 -33.421875 L 23.765625 -26.765625 L 14.234375 -26.765625 L 14.234375 0 Z M 5.84375 0 "/></g></g></g><g fill="#8f8f8f" fill-opacity="1"><g transform="translate(234.550118, 577.303003)"><g><path d="M 15.625 0.640625 C 13.34375 0.640625 11.253906 0.375 9.359375 -0.15625 C 7.460938 -0.695312 5.84375 -1.4375 4.5 -2.375 C 3.15625 -3.3125 2.160156 -4.382812 1.515625 -5.59375 L 6.171875 -10.625 L 6.8125 -10.625 C 7.925781 -9.132812 9.238281 -8.015625 10.75 -7.265625 C 12.257812 -6.515625 13.90625 -6.140625 15.6875 -6.140625 C 17.320312 -6.140625 18.550781 -6.429688 19.375 -7.015625 C 20.195312 -7.609375 20.609375 -8.445312 20.609375 -9.53125 C 20.609375 -10.382812 20.3125 -11.097656 19.71875 -11.671875 C 19.125 -12.242188 18.160156 -12.691406 16.828125 -13.015625 L 12.40625 -14.078125 C 9.101562 -14.867188 6.6875 -16.070312 5.15625 -17.6875 C 3.632812 -19.3125 2.875 -21.378906 2.875 -23.890625 C 2.875 -25.960938 3.40625 -27.765625 4.46875 -29.296875 C 5.53125 -30.835938 7.023438 -32.007812 8.953125 -32.8125 C 10.878906 -33.625 13.125 -34.03125 15.6875 -34.03125 C 18.6875 -34.03125 21.175781 -33.59375 23.15625 -32.71875 C 25.132812 -31.851562 26.679688 -30.695312 27.796875 -29.25 L 23.3125 -24.40625 L 22.703125 -24.40625 C 21.773438 -25.445312 20.726562 -26.207031 19.5625 -26.6875 C 18.40625 -27.175781 17.113281 -27.421875 15.6875 -27.421875 C 12.375 -27.421875 10.71875 -26.394531 10.71875 -24.34375 C 10.71875 -23.46875 11.023438 -22.757812 11.640625 -22.21875 C 12.253906 -21.675781 13.335938 -21.234375 14.890625 -20.890625 L 19.015625 -19.984375 C 22.398438 -19.253906 24.875 -18.085938 26.4375 -16.484375 C 28.007812 -14.878906 28.796875 -12.722656 28.796875 -10.015625 C 28.796875 -7.898438 28.269531 -6.035156 27.21875 -4.421875 C 26.164062 -2.804688 24.648438 -1.554688 22.671875 -0.671875 C 20.691406 0.203125 18.34375 0.640625 15.625 0.640625 Z M 15.625 0.640625 "/></g></g></g><g fill="#8f8f8f" fill-opacity="1"><g transform="translate(265.334324, 577.303003)"><g><path d="M 16.5 0.640625 C 13.851562 0.640625 11.515625 0 9.484375 -1.28125 C 7.460938 -2.5625 5.875 -4.5 4.71875 -7.09375 C 3.570312 -9.6875 3 -12.882812 3 -16.6875 C 3 -20.5 3.585938 -23.703125 4.765625 -26.296875 C 5.953125 -28.890625 7.585938 -30.828125 9.671875 -32.109375 C 11.765625 -33.390625 14.179688 -34.03125 16.921875 -34.03125 C 19.003906 -34.03125 20.804688 -33.671875 22.328125 -32.953125 C 23.847656 -32.234375 25.132812 -31.117188 26.1875 -29.609375 L 26.828125 -29.765625 L 26.828125 -46.796875 L 35.203125 -46.796875 L 35.203125 0 L 26.828125 0 L 26.828125 -4.328125 L 26.1875 -4.453125 C 25.257812 -2.878906 23.988281 -1.632812 22.375 -0.71875 C 20.757812 0.1875 18.800781 0.640625 16.5 0.640625 Z M 19.21875 -6.484375 C 21.582031 -6.484375 23.453125 -7.320312 24.828125 -9 C 26.203125 -10.6875 26.890625 -13.25 26.890625 -16.6875 C 26.890625 -20.113281 26.203125 -22.671875 24.828125 -24.359375 C 23.453125 -26.054688 21.582031 -26.90625 19.21875 -26.90625 C 16.757812 -26.90625 14.878906 -26.082031 13.578125 -24.4375 C 12.273438 -22.800781 11.625 -20.21875 11.625 -16.6875 C 11.625 -13.164062 12.273438 -10.582031 13.578125 -8.9375 C 14.878906 -7.300781 16.757812 -6.484375 19.21875 -6.484375 Z M 19.21875 -6.484375 "/></g></g></g><g fill="#8f8f8f" fill-opacity="1"><g transform="translate(305.350763, 577.303003)"><g><path d="M 5.84375 0 L 5.84375 -26.765625 L 1.125 -26.765625 L 1.125 -33.421875 L 5.84375 -33.421875 C 5.5 -34.835938 5.328125 -36.160156 5.328125 -37.390625 C 5.328125 -39.503906 5.8125 -41.3125 6.78125 -42.8125 C 7.75 -44.320312 9.140625 -45.46875 10.953125 -46.25 C 12.773438 -47.039062 14.9375 -47.4375 17.4375 -47.4375 C 21.132812 -47.4375 23.890625 -46.800781 25.703125 -45.53125 L 23.734375 -39.359375 L 23.09375 -39.234375 C 21.84375 -40.117188 20.238281 -40.5625 18.28125 -40.5625 C 16.769531 -40.5625 15.632812 -40.191406 14.875 -39.453125 C 14.125 -38.722656 13.75 -37.722656 13.75 -36.453125 C 13.75 -35.898438 13.78125 -35.394531 13.84375 -34.9375 C 13.914062 -34.488281 14.046875 -33.984375 14.234375 -33.421875 L 23.765625 -33.421875 L 23.765625 -26.765625 L 14.234375 -26.765625 L 14.234375 0 Z M 5.84375 0 "/></g></g></g><g fill="#8f8f8f" fill-opacity="1"><g transform="translate(329.959989, 577.303003)"><g><path d="M 15.625 0.640625 C 13.34375 0.640625 11.253906 0.375 9.359375 -0.15625 C 7.460938 -0.695312 5.84375 -1.4375 4.5 -2.375 C 3.15625 -3.3125 2.160156 -4.382812 1.515625 -5.59375 L 6.171875 -10.625 L 6.8125 -10.625 C 7.925781 -9.132812 9.238281 -8.015625 10.75 -7.265625 C 12.257812 -6.515625 13.90625 -6.140625 15.6875 -6.140625 C 17.320312 -6.140625 18.550781 -6.429688 19.375 -7.015625 C 20.195312 -7.609375 20.609375 -8.445312 20.609375 -9.53125 C 20.609375 -10.382812 20.3125 -11.097656 19.71875 -11.671875 C 19.125 -12.242188 18.160156 -12.691406 16.828125 -13.015625 L 12.40625 -14.078125 C 9.101562 -14.867188 6.6875 -16.070312 5.15625 -17.6875 C 3.632812 -19.3125 2.875 -21.378906 2.875 -23.890625 C 2.875 -25.960938 3.40625 -27.765625 4.46875 -29.296875 C 5.53125 -30.835938 7.023438 -32.007812 8.953125 -32.8125 C 10.878906 -33.625 13.125 -34.03125 15.6875 -34.03125 C 18.6875 -34.03125 21.175781 -33.59375 23.15625 -32.71875 C 25.132812 -31.851562 26.679688 -30.695312 27.796875 -29.25 L 23.3125 -24.40625 L 22.703125 -24.40625 C 21.773438 -25.445312 20.726562 -26.207031 19.5625 -26.6875 C 18.40625 -27.175781 17.113281 -27.421875 15.6875 -27.421875 C 12.375 -27.421875 10.71875 -26.394531 10.71875 -24.34375 C 10.71875 -23.46875 11.023438 -22.757812 11.640625 -22.21875 C 12.253906 -21.675781 13.335938 -21.234375 14.890625 -20.890625 L 19.015625 -19.984375 C 22.398438 -19.253906 24.875 -18.085938 26.4375 -16.484375 C 28.007812 -14.878906 28.796875 -12.722656 28.796875 -10.015625 C 28.796875 -7.898438 28.269531 -6.035156 27.21875 -4.421875 C 26.164062 -2.804688 24.648438 -1.554688 22.671875 -0.671875 C 20.691406 0.203125 18.34375 0.640625 15.625 0.640625 Z M 15.625 0.640625 "/></g></g></g><g fill="#8f8f8f" fill-opacity="1"><g transform="translate(360.744194, 577.303003)"><g><path d="M 16.5 0.640625 C 13.851562 0.640625 11.515625 0 9.484375 -1.28125 C 7.460938 -2.5625 5.875 -4.5 4.71875 -7.09375 C 3.570312 -9.6875 3 -12.882812 3 -16.6875 C 3 -20.5 3.585938 -23.703125 4.765625 -26.296875 C 5.953125 -28.890625 7.585938 -30.828125 9.671875 -32.109375 C 11.765625 -33.390625 14.179688 -34.03125 16.921875 -34.03125 C 19.003906 -34.03125 20.804688 -33.671875 22.328125 -32.953125 C 23.847656 -32.234375 25.132812 -31.117188 26.1875 -29.609375 L 26.828125 -29.765625 L 26.828125 -46.796875 L 35.203125 -46.796875 L 35.203125 0 L 26.828125 0 L 26.828125 -4.328125 L 26.1875 -4.453125 C 25.257812 -2.878906 23.988281 -1.632812 22.375 -0.71875 C 20.757812 0.1875 18.800781 0.640625 16.5 0.640625 Z M 19.21875 -6.484375 C 21.582031 -6.484375 23.453125 -7.320312 24.828125 -9 C 26.203125 -10.6875 26.890625 -13.25 26.890625 -16.6875 C 26.890625 -20.113281 26.203125 -22.671875 24.828125 -24.359375 C 23.453125 -26.054688 21.582031 -26.90625 19.21875 -26.90625 C 16.757812 -26.90625 14.878906 -26.082031 13.578125 -24.4375 C 12.273438 -22.800781 11.625 -20.21875 11.625 -16.6875 C 11.625 -13.164062 12.273438 -10.582031 13.578125 -8.9375 C 14.878906 -7.300781 16.757812 -6.484375 19.21875 -6.484375 Z M 19.21875 -6.484375 "/></g></g></g><g fill="#8f8f8f" fill-opacity="1"><g transform="translate(400.760634, 577.303003)"><g><path d="M 5.84375 0 L 5.84375 -26.765625 L 1.125 -26.765625 L 1.125 -33.421875 L 5.84375 -33.421875 C 5.5 -34.835938 5.328125 -36.160156 5.328125 -37.390625 C 5.328125 -39.503906 5.8125 -41.3125 6.78125 -42.8125 C 7.75 -44.320312 9.140625 -45.46875 10.953125 -46.25 C 12.773438 -47.039062 14.9375 -47.4375 17.4375 -47.4375 C 21.132812 -47.4375 23.890625 -46.800781 25.703125 -45.53125 L 23.734375 -39.359375 L 23.09375 -39.234375 C 21.84375 -40.117188 20.238281 -40.5625 18.28125 -40.5625 C 16.769531 -40.5625 15.632812 -40.191406 14.875 -39.453125 C 14.125 -38.722656 13.75 -37.722656 13.75 -36.453125 C 13.75 -35.898438 13.78125 -35.394531 13.84375 -34.9375 C 13.914062 -34.488281 14.046875 -33.984375 14.234375 -33.421875 L 23.765625 -33.421875 L 23.765625 -26.765625 L 14.234375 -26.765625 L 14.234375 0 Z M 5.84375 0 "/></g></g></g></svg>